<?xml version="1.0" encoding="UTF-8"?>
<svg xmlns="http://www.w3.org/2000/svg" xmlns:xlink="http://www.w3.org/1999/xlink" width="168.75pt" height="56.249996pt" viewBox="0 0 168.75 56.249996" version="1.2">
<defs>
<clipPath id="clip1">
  <path d="M 8.546875 3.257812 L 37.855469 3.257812 L 37.855469 25 L 8.546875 25 Z M 8.546875 3.257812 "/>
</clipPath>
<clipPath id="clip2">
  <path d="M 7.378906 3 L 36.679688 3 L 36.679688 25 L 7.378906 25 Z M 7.378906 3 "/>
</clipPath>
<clipPath id="clip3">
  <path d="M 39 2 L 164.703125 2 L 164.703125 31.257812 L 39 31.257812 Z M 39 2 "/>
</clipPath>
</defs>
<g id="surface1">
<path style=" stroke:none;fill-rule:nonzero;fill:rgb(99.609375%,90.19928%,0%);fill-opacity:1;" d="M 11.296875 28.886719 L 35.035156 28.886719 L 35.035156 34.804688 L 11.296875 34.804688 Z M 11.296875 28.886719 "/>
<path style=" stroke:none;fill-rule:nonzero;fill:rgb(99.609375%,90.19928%,0%);fill-opacity:1;" d="M 8.164062 36.609375 L 38.199219 36.609375 L 38.199219 42.527344 L 8.164062 42.527344 Z M 8.164062 36.609375 "/>
<path style=" stroke:none;fill-rule:nonzero;fill:rgb(99.609375%,90.19928%,0%);fill-opacity:1;" d="M 4.726562 44.34375 L 41.640625 44.34375 L 41.640625 50.253906 L 4.726562 50.253906 Z M 4.726562 44.34375 "/>
<g clip-path="url(#clip1)" clip-rule="nonzero">
<path style=" stroke:none;fill-rule:nonzero;fill:rgb(99.609375%,90.19928%,0%);fill-opacity:1;" d="M 22.6875 3.78125 C 21.882812 3.996094 21.292969 4.714844 21.132812 5.648438 C 21.046875 6.148438 21.125 6.625 21.371094 7.136719 C 21.558594 7.523438 22.003906 7.984375 22.328125 8.121094 C 22.484375 8.1875 22.515625 8.226562 22.488281 8.300781 C 22.464844 8.351562 22.375 8.59375 22.285156 8.832031 C 21.777344 10.21875 20.925781 12.066406 20.351562 13.039062 C 19.433594 14.597656 18.554688 15.484375 17.675781 15.738281 C 17.238281 15.871094 16.882812 15.824219 16.359375 15.570312 C 15.21875 15.023438 14.214844 14.136719 12.960938 12.5625 C 12.613281 12.117188 11.882812 11.09375 11.828125 10.964844 C 11.816406 10.941406 11.933594 10.789062 12.09375 10.625 C 13.175781 9.503906 12.898438 7.523438 11.542969 6.839844 C 11.246094 6.683594 11.152344 6.667969 10.667969 6.667969 C 10.183594 6.667969 10.085938 6.683594 9.789062 6.832031 C 8.714844 7.386719 8.257812 8.824219 8.796875 10 C 9.101562 10.65625 9.734375 11.152344 10.414062 11.230469 C 10.667969 11.265625 10.730469 11.292969 10.753906 11.398438 C 10.769531 11.460938 11.398438 14.421875 12.15625 17.960938 C 12.910156 21.5 13.542969 24.460938 13.558594 24.527344 L 13.589844 24.660156 L 32.816406 24.660156 L 32.84375 24.527344 C 32.859375 24.460938 33.492188 21.5 34.246094 17.960938 C 35.003906 14.421875 35.632812 11.460938 35.648438 11.398438 C 35.671875 11.292969 35.734375 11.265625 35.992188 11.230469 C 36.667969 11.152344 37.304688 10.65625 37.605469 10 C 38.148438 8.824219 37.691406 7.386719 36.613281 6.832031 C 36.316406 6.683594 36.21875 6.667969 35.734375 6.667969 C 35.25 6.667969 35.160156 6.683594 34.863281 6.839844 C 34.222656 7.15625 33.777344 7.824219 33.660156 8.605469 C 33.546875 9.347656 33.777344 10.078125 34.308594 10.625 C 34.464844 10.789062 34.589844 10.933594 34.589844 10.949219 C 34.589844 10.996094 33.722656 12.191406 33.34375 12.675781 C 32.273438 14.027344 31.21875 14.96875 30.222656 15.480469 C 29.53125 15.832031 29.210938 15.882812 28.726562 15.738281 C 27.265625 15.304688 25.757812 13.085938 24.199219 9.042969 C 24.027344 8.605469 23.886719 8.238281 23.886719 8.226562 C 23.886719 8.214844 23.988281 8.15625 24.109375 8.097656 C 24.222656 8.046875 24.457031 7.863281 24.621094 7.691406 C 25.859375 6.453125 25.316406 4.207031 23.675781 3.777344 C 23.277344 3.671875 23.09375 3.671875 22.6875 3.78125 Z M 22.6875 3.78125 "/>
</g>
<path style=" stroke:none;fill-rule:nonzero;fill:rgb(99.609375%,90.19928%,0%);fill-opacity:1;" d="M 13.703125 26.429688 L 13.703125 27.722656 L 32.703125 27.722656 L 32.703125 25.128906 L 13.703125 25.128906 Z M 13.703125 26.429688 "/>
<path style=" stroke:none;fill-rule:nonzero;fill:rgb(0%,0%,0%);fill-opacity:1;" d="M 10.128906 28.28125 L 33.859375 28.28125 L 33.859375 34.199219 L 10.128906 34.199219 Z M 10.128906 28.28125 "/>
<path style=" stroke:none;fill-rule:nonzero;fill:rgb(0%,0%,0%);fill-opacity:1;" d="M 6.992188 36.007812 L 37.023438 36.007812 L 37.023438 41.925781 L 6.992188 41.925781 Z M 6.992188 36.007812 "/>
<path style=" stroke:none;fill-rule:nonzero;fill:rgb(0%,0%,0%);fill-opacity:1;" d="M 3.550781 43.738281 L 40.472656 43.738281 L 40.472656 49.648438 L 3.550781 49.648438 Z M 3.550781 43.738281 "/>
<g clip-path="url(#clip2)" clip-rule="nonzero">
<path style=" stroke:none;fill-rule:nonzero;fill:rgb(0%,0%,0%);fill-opacity:1;" d="M 21.515625 3.179688 C 20.714844 3.390625 20.117188 4.105469 19.957031 5.042969 C 19.871094 5.542969 19.953125 6.019531 20.195312 6.535156 C 20.386719 6.917969 20.835938 7.378906 21.160156 7.519531 C 21.308594 7.582031 21.34375 7.621094 21.3125 7.695312 C 21.292969 7.75 21.207031 7.988281 21.113281 8.226562 C 20.605469 9.613281 19.753906 11.460938 19.183594 12.433594 C 18.257812 13.992188 17.378906 14.875 16.507812 15.132812 C 16.070312 15.265625 15.710938 15.21875 15.183594 14.960938 C 14.042969 14.421875 13.046875 13.535156 11.792969 11.957031 C 11.445312 11.511719 10.707031 10.488281 10.652344 10.355469 C 10.640625 10.332031 10.761719 10.183594 10.917969 10.023438 C 12.007812 8.898438 11.730469 6.917969 10.371094 6.234375 C 10.074219 6.078125 9.984375 6.0625 9.496094 6.0625 C 9.007812 6.0625 8.917969 6.078125 8.621094 6.230469 C 7.539062 6.78125 7.089844 8.21875 7.625 9.394531 C 7.925781 10.050781 8.566406 10.546875 9.238281 10.625 C 9.496094 10.660156 9.558594 10.691406 9.578125 10.792969 C 9.597656 10.855469 10.230469 13.816406 10.980469 17.355469 C 11.742188 20.894531 12.367188 23.855469 12.386719 23.925781 L 12.414062 24.054688 L 31.644531 24.054688 L 31.675781 23.925781 C 31.691406 23.855469 32.320312 20.894531 33.078125 17.355469 C 33.832031 13.816406 34.464844 10.855469 34.480469 10.792969 C 34.503906 10.691406 34.566406 10.660156 34.824219 10.625 C 35.496094 10.546875 36.132812 10.050781 36.4375 9.394531 C 36.972656 8.21875 36.523438 6.78125 35.4375 6.230469 C 35.140625 6.078125 35.050781 6.0625 34.566406 6.0625 C 34.074219 6.0625 33.984375 6.078125 33.6875 6.234375 C 33.054688 6.550781 32.605469 7.214844 32.484375 8 C 32.371094 8.738281 32.605469 9.476562 33.140625 10.023438 C 33.292969 10.183594 33.417969 10.320312 33.417969 10.339844 C 33.417969 10.386719 32.546875 11.589844 32.171875 12.070312 C 31.097656 13.417969 30.050781 14.363281 29.046875 14.867188 C 28.363281 15.226562 28.035156 15.277344 27.550781 15.132812 C 26.09375 14.703125 24.582031 12.480469 23.023438 8.4375 C 22.855469 8 22.71875 7.632812 22.71875 7.621094 C 22.71875 7.609375 22.8125 7.550781 22.933594 7.496094 C 23.046875 7.441406 23.28125 7.253906 23.445312 7.085938 C 24.683594 5.847656 24.148438 3.605469 22.507812 3.171875 C 22.101562 3.070312 21.917969 3.070312 21.515625 3.179688 Z M 21.515625 3.179688 "/>
</g>
<path style=" stroke:none;fill-rule:nonzero;fill:rgb(0%,0%,0%);fill-opacity:1;" d="M 12.527344 25.816406 L 12.527344 27.117188 L 31.53125 27.117188 L 31.53125 24.523438 L 12.527344 24.523438 Z M 12.527344 25.816406 "/>
<path style=" stroke:none;fill-rule:nonzero;fill:rgb(99.609375%,90.19928%,0%);fill-opacity:1;" d="M 57.070312 32.582031 C 58.96875 32.582031 60.148438 32.59375 60.605469 32.605469 C 63.691406 32.714844 66.023438 33.5625 67.609375 35.136719 C 69.207031 36.722656 70.003906 38.824219 70.003906 41.449219 C 70.003906 43.214844 69.644531 44.773438 68.929688 46.121094 C 68.214844 47.457031 67.152344 48.511719 65.738281 49.277344 C 64.324219 50.03125 62.601562 50.40625 60.582031 50.40625 L 54.3125 50.40625 C 54.082031 50.40625 53.90625 50.351562 53.785156 50.242188 C 53.679688 50.121094 53.628906 49.9375 53.628906 49.691406 L 53.628906 33.179688 C 53.628906 32.96875 53.671875 32.8125 53.765625 32.722656 C 53.867188 32.628906 54.039062 32.582031 54.265625 32.582031 Z M 59.261719 36.359375 C 59.179688 36.359375 59.125 36.382812 59.078125 36.429688 C 59.042969 36.472656 59.03125 36.558594 59.03125 36.679688 L 59.03125 46.28125 C 59.03125 46.421875 59.054688 46.511719 59.101562 46.558594 C 59.148438 46.605469 59.238281 46.628906 59.375 46.628906 L 59.535156 46.628906 C 61.097656 46.628906 62.292969 46.226562 63.117188 45.40625 C 63.9375 44.578125 64.347656 43.238281 64.347656 41.378906 C 64.347656 39.785156 64.035156 38.59375 63.410156 37.808594 C 62.785156 37.015625 61.882812 36.558594 60.699219 36.449219 Z M 59.261719 36.359375 "/>
<path style=" stroke:none;fill-rule:nonzero;fill:rgb(99.609375%,90.19928%,0%);fill-opacity:1;" d="M 76.941406 32.582031 C 77.226562 32.582031 77.375 32.753906 77.375 33.089844 L 77.375 49.714844 C 77.375 49.960938 77.304688 50.140625 77.167969 50.242188 C 77.042969 50.351562 76.855469 50.40625 76.597656 50.40625 L 72.605469 50.40625 C 72.378906 50.40625 72.207031 50.359375 72.105469 50.265625 C 72.015625 50.164062 71.96875 50.007812 71.96875 49.804688 L 71.96875 33.136719 C 71.96875 32.96875 72.003906 32.835938 72.082031 32.742188 C 72.175781 32.640625 72.289062 32.582031 72.425781 32.582031 Z M 76.941406 32.582031 "/>
<path style=" stroke:none;fill-rule:nonzero;fill:rgb(99.609375%,90.19928%,0%);fill-opacity:1;" d="M 87.640625 50.636719 C 86 50.636719 84.546875 50.253906 83.285156 49.484375 C 82.019531 48.71875 81.039062 47.652344 80.34375 46.28125 C 79.660156 44.917969 79.316406 43.347656 79.316406 41.5625 C 79.316406 39.738281 79.683594 38.132812 80.414062 36.75 C 81.140625 35.355469 82.15625 34.273438 83.46875 33.503906 C 84.773438 32.738281 86.273438 32.351562 87.960938 32.351562 C 89.332031 32.351562 90.542969 32.605469 91.609375 33.113281 C 92.671875 33.609375 93.53125 34.257812 94.1875 35.070312 C 94.855469 35.871094 95.292969 36.714844 95.511719 37.601562 C 95.558594 37.804688 95.578125 37.960938 95.578125 38.0625 C 95.578125 38.199219 95.539062 38.304688 95.464844 38.363281 C 95.402344 38.410156 95.304688 38.441406 95.167969 38.453125 L 91.109375 39.074219 C 90.925781 39.074219 90.8125 39.046875 90.765625 38.984375 C 90.722656 38.910156 90.675781 38.777344 90.628906 38.59375 C 90.492188 37.855469 90.1875 37.25 89.71875 36.773438 C 89.261719 36.300781 88.632812 36.058594 87.847656 36.058594 C 86.902344 36.058594 86.1875 36.46875 85.703125 37.28125 C 85.230469 38.097656 84.996094 39.480469 84.996094 41.425781 C 84.996094 43.46875 85.253906 44.894531 85.773438 45.707031 C 86.285156 46.507812 87.039062 46.90625 88.03125 46.90625 C 89.320312 46.90625 90.179688 46.347656 90.609375 45.222656 L 90.675781 44.992188 L 90.722656 44.808594 C 90.722656 44.671875 90.628906 44.601562 90.449219 44.601562 L 88.210938 44.601562 C 88.042969 44.601562 87.921875 44.566406 87.847656 44.488281 C 87.785156 44.394531 87.757812 44.257812 87.757812 44.074219 L 87.757812 41.769531 C 87.757812 41.492188 87.917969 41.355469 88.234375 41.355469 L 94.894531 41.402344 C 95.179688 41.402344 95.402344 41.472656 95.558594 41.609375 C 95.722656 41.746094 95.808594 41.925781 95.808594 42.136719 L 95.808594 49.992188 C 95.808594 50.117188 95.769531 50.214844 95.695312 50.289062 C 95.613281 50.371094 95.515625 50.40625 95.398438 50.40625 L 94.507812 50.40625 C 94.21875 50.40625 93.960938 50.253906 93.730469 49.945312 L 92.796875 48.5625 C 92.78125 48.515625 92.738281 48.492188 92.683594 48.492188 C 92.648438 48.492188 92.597656 48.535156 92.523438 48.609375 C 92.113281 49.011719 91.714844 49.34375 91.335938 49.621094 C 90.972656 49.886719 90.476562 50.121094 89.855469 50.335938 C 89.246094 50.53125 88.507812 50.636719 87.640625 50.636719 Z M 87.640625 50.636719 "/>
<path style=" stroke:none;fill-rule:nonzero;fill:rgb(99.609375%,90.19928%,0%);fill-opacity:1;" d="M 102.917969 32.582031 C 103.203125 32.582031 103.351562 32.753906 103.351562 33.089844 L 103.351562 49.714844 C 103.351562 49.960938 103.28125 50.140625 103.144531 50.242188 C 103.019531 50.351562 102.832031 50.40625 102.574219 50.40625 L 98.585938 50.40625 C 98.355469 50.40625 98.183594 50.359375 98.082031 50.265625 C 97.992188 50.164062 97.945312 50.007812 97.945312 49.804688 L 97.945312 33.136719 C 97.945312 32.96875 97.980469 32.835938 98.058594 32.742188 C 98.152344 32.640625 98.265625 32.582031 98.402344 32.582031 Z M 102.917969 32.582031 "/>
<path style=" stroke:none;fill-rule:nonzero;fill:rgb(99.609375%,90.19928%,0%);fill-opacity:1;" d="M 105.25 33.136719 C 105.25 32.984375 105.300781 32.851562 105.410156 32.742188 C 105.511719 32.640625 105.660156 32.582031 105.84375 32.582031 L 120.074219 32.582031 C 120.269531 32.582031 120.417969 32.640625 120.507812 32.742188 C 120.609375 32.851562 120.667969 32.984375 120.667969 33.136719 L 120.667969 35.992188 C 120.667969 36.300781 120.492188 36.449219 120.144531 36.449219 L 115.945312 36.449219 C 115.746094 36.449219 115.648438 36.53125 115.648438 36.679688 L 115.648438 49.875 C 115.648438 50.058594 115.609375 50.199219 115.535156 50.289062 C 115.457031 50.371094 115.339844 50.40625 115.191406 50.40625 L 110.675781 50.40625 C 110.386719 50.40625 110.242188 50.242188 110.242188 49.921875 L 110.242188 36.796875 C 110.242188 36.566406 110.160156 36.449219 109.992188 36.449219 L 105.796875 36.449219 C 105.429688 36.449219 105.25 36.300781 105.25 35.992188 Z M 105.25 33.136719 "/>
<path style=" stroke:none;fill-rule:nonzero;fill:rgb(99.609375%,90.19928%,0%);fill-opacity:1;" d="M 122.359375 50.40625 C 122.234375 50.40625 122.132812 50.371094 122.039062 50.289062 C 121.960938 50.199219 121.925781 50.070312 121.925781 49.898438 C 121.925781 49.792969 121.949219 49.664062 121.996094 49.507812 L 127.765625 33.136719 C 127.839844 32.941406 127.925781 32.800781 128.015625 32.722656 C 128.105469 32.628906 128.253906 32.582031 128.472656 32.582031 L 133.148438 32.582031 C 133.34375 32.582031 133.519531 32.644531 133.671875 32.765625 C 133.820312 32.894531 133.933594 33.042969 134.015625 33.226562 L 139.714844 49.597656 C 139.746094 49.726562 139.761719 49.816406 139.761719 49.875 C 139.761719 50.011719 139.726562 50.140625 139.671875 50.242188 C 139.609375 50.351562 139.515625 50.40625 139.398438 50.40625 L 134.722656 50.40625 C 134.449219 50.40625 134.269531 50.265625 134.195312 49.992188 L 133.285156 47.226562 C 133.222656 47.125 133.171875 47.054688 133.125 47.019531 C 133.089844 46.972656 133.023438 46.949219 132.917969 46.949219 L 127.878906 46.949219 C 127.679688 46.949219 127.558594 47.039062 127.515625 47.203125 L 126.535156 50.035156 C 126.441406 50.285156 126.25 50.40625 125.964844 50.40625 Z M 131.734375 42.851562 C 131.898438 42.851562 131.984375 42.777344 131.984375 42.621094 C 131.984375 42.59375 131.96875 42.519531 131.9375 42.390625 L 130.523438 38.269531 C 130.492188 38.195312 130.441406 38.15625 130.367188 38.15625 C 130.300781 38.15625 130.257812 38.195312 130.230469 38.269531 L 128.769531 42.367188 C 128.734375 42.433594 128.722656 42.507812 128.722656 42.597656 C 128.722656 42.773438 128.820312 42.851562 129.019531 42.851562 Z M 131.734375 42.851562 "/>
<path style=" stroke:none;fill-rule:nonzero;fill:rgb(99.609375%,90.19928%,0%);fill-opacity:1;" d="M 141.570312 33.136719 C 141.570312 32.96875 141.605469 32.835938 141.6875 32.742188 C 141.777344 32.640625 141.890625 32.582031 142.027344 32.582031 L 146.542969 32.582031 C 146.828125 32.582031 146.976562 32.753906 146.976562 33.089844 L 146.976562 46.121094 C 146.976562 46.261719 146.988281 46.351562 147.023438 46.398438 C 147.070312 46.445312 147.148438 46.46875 147.273438 46.46875 L 154.414062 46.46875 C 154.777344 46.46875 154.960938 46.621094 154.960938 46.929688 L 154.960938 49.875 C 154.960938 50.03125 154.902344 50.164062 154.800781 50.265625 C 154.710938 50.359375 154.5625 50.40625 154.367188 50.40625 L 142.210938 50.40625 C 141.984375 50.40625 141.8125 50.359375 141.707031 50.265625 C 141.617188 50.164062 141.570312 50.007812 141.570312 49.804688 Z M 141.570312 33.136719 "/>
<path style=" stroke:none;fill-rule:nonzero;fill:rgb(0%,0%,0%);fill-opacity:1;" d="M 56.019531 31.523438 C 57.917969 31.523438 59.097656 31.535156 59.554688 31.542969 C 62.640625 31.652344 64.972656 32.5 66.558594 34.078125 C 68.152344 35.660156 68.953125 37.761719 68.953125 40.386719 C 68.953125 42.152344 68.59375 43.714844 67.878906 45.0625 C 67.160156 46.394531 66.101562 47.449219 64.6875 48.214844 C 63.273438 48.96875 61.550781 49.34375 59.53125 49.34375 L 53.261719 49.34375 C 53.03125 49.34375 52.855469 49.292969 52.734375 49.183594 C 52.628906 49.0625 52.578125 48.878906 52.578125 48.628906 L 52.578125 32.121094 C 52.578125 31.90625 52.621094 31.753906 52.714844 31.660156 C 52.816406 31.566406 52.988281 31.523438 53.214844 31.523438 Z M 58.210938 35.296875 C 58.128906 35.296875 58.074219 35.320312 58.027344 35.367188 C 57.992188 35.414062 57.980469 35.5 57.980469 35.621094 L 57.980469 45.222656 C 57.980469 45.359375 58.003906 45.453125 58.050781 45.5 C 58.097656 45.542969 58.1875 45.566406 58.324219 45.566406 L 58.484375 45.566406 C 60.046875 45.566406 61.242188 45.164062 62.0625 44.347656 C 62.886719 43.519531 63.296875 42.175781 63.296875 40.316406 C 63.296875 38.722656 62.984375 37.53125 62.359375 36.75 C 61.734375 35.953125 60.832031 35.5 59.648438 35.390625 Z M 58.210938 35.296875 "/>
<path style=" stroke:none;fill-rule:nonzero;fill:rgb(0%,0%,0%);fill-opacity:1;" d="M 75.890625 31.523438 C 76.175781 31.523438 76.324219 31.695312 76.324219 32.027344 L 76.324219 48.652344 C 76.324219 48.902344 76.253906 49.078125 76.117188 49.183594 C 75.992188 49.292969 75.804688 49.34375 75.546875 49.34375 L 71.554688 49.34375 C 71.328125 49.34375 71.15625 49.296875 71.054688 49.207031 C 70.964844 49.101562 70.917969 48.945312 70.917969 48.746094 L 70.917969 32.074219 C 70.917969 31.90625 70.953125 31.773438 71.03125 31.683594 C 71.121094 31.578125 71.238281 31.523438 71.375 31.523438 Z M 75.890625 31.523438 "/>
<path style=" stroke:none;fill-rule:nonzero;fill:rgb(0%,0%,0%);fill-opacity:1;" d="M 86.589844 49.574219 C 84.949219 49.574219 83.496094 49.195312 82.234375 48.421875 C 80.96875 47.65625 79.988281 46.59375 79.292969 45.222656 C 78.609375 43.859375 78.265625 42.285156 78.265625 40.5 C 78.265625 38.675781 78.632812 37.070312 79.363281 35.6875 C 80.089844 34.296875 81.105469 33.214844 82.417969 32.441406 C 83.722656 31.675781 85.222656 31.292969 86.910156 31.292969 C 88.28125 31.292969 89.492188 31.542969 90.558594 32.050781 C 91.621094 32.546875 92.480469 33.195312 93.136719 34.007812 C 93.804688 34.808594 94.242188 35.65625 94.460938 36.542969 C 94.507812 36.742188 94.527344 36.898438 94.527344 37 C 94.527344 37.140625 94.488281 37.242188 94.414062 37.300781 C 94.351562 37.347656 94.253906 37.382812 94.117188 37.394531 L 90.058594 38.015625 C 89.875 38.015625 89.761719 37.984375 89.714844 37.921875 C 89.671875 37.847656 89.625 37.714844 89.578125 37.53125 C 89.441406 36.792969 89.132812 36.191406 88.667969 35.710938 C 88.210938 35.242188 87.582031 35 86.796875 35 C 85.851562 35 85.136719 35.40625 84.652344 36.21875 C 84.179688 37.035156 83.945312 38.417969 83.945312 40.363281 C 83.945312 42.40625 84.203125 43.835938 84.722656 44.644531 C 85.234375 45.445312 85.988281 45.84375 86.980469 45.84375 C 88.269531 45.84375 89.128906 45.285156 89.554688 44.164062 L 89.625 43.933594 L 89.671875 43.75 C 89.671875 43.609375 89.578125 43.542969 89.398438 43.542969 L 87.160156 43.542969 C 86.992188 43.542969 86.871094 43.507812 86.796875 43.425781 C 86.734375 43.332031 86.707031 43.195312 86.707031 43.011719 L 86.707031 40.710938 C 86.707031 40.433594 86.867188 40.292969 87.183594 40.292969 L 93.84375 40.339844 C 94.128906 40.339844 94.351562 40.410156 94.507812 40.546875 C 94.671875 40.6875 94.757812 40.863281 94.757812 41.078125 L 94.757812 48.929688 C 94.757812 49.054688 94.71875 49.152344 94.644531 49.230469 C 94.5625 49.308594 94.464844 49.34375 94.347656 49.34375 L 93.457031 49.34375 C 93.164062 49.34375 92.910156 49.195312 92.679688 48.882812 L 91.746094 47.5 C 91.730469 47.457031 91.6875 47.433594 91.632812 47.433594 C 91.597656 47.433594 91.546875 47.472656 91.472656 47.546875 C 91.0625 47.949219 90.664062 48.285156 90.285156 48.5625 C 89.921875 48.824219 89.425781 49.0625 88.804688 49.273438 C 88.195312 49.46875 87.457031 49.574219 86.589844 49.574219 Z M 86.589844 49.574219 "/>
<path style=" stroke:none;fill-rule:nonzero;fill:rgb(0%,0%,0%);fill-opacity:1;" d="M 101.867188 31.523438 C 102.148438 31.523438 102.296875 31.695312 102.296875 32.027344 L 102.296875 48.652344 C 102.296875 48.902344 102.230469 49.078125 102.09375 49.183594 C 101.96875 49.292969 101.78125 49.34375 101.523438 49.34375 L 97.53125 49.34375 C 97.304688 49.34375 97.132812 49.296875 97.03125 49.207031 C 96.9375 49.101562 96.894531 48.945312 96.894531 48.746094 L 96.894531 32.074219 C 96.894531 31.90625 96.925781 31.773438 97.007812 31.683594 C 97.097656 31.578125 97.210938 31.523438 97.347656 31.523438 Z M 101.867188 31.523438 "/>
<path style=" stroke:none;fill-rule:nonzero;fill:rgb(0%,0%,0%);fill-opacity:1;" d="M 104.199219 32.074219 C 104.199219 31.925781 104.25 31.792969 104.359375 31.683594 C 104.460938 31.578125 104.609375 31.523438 104.792969 31.523438 L 119.023438 31.523438 C 119.21875 31.523438 119.367188 31.578125 119.457031 31.683594 C 119.558594 31.792969 119.617188 31.925781 119.617188 32.074219 L 119.617188 34.929688 C 119.617188 35.242188 119.441406 35.390625 119.089844 35.390625 L 114.894531 35.390625 C 114.695312 35.390625 114.597656 35.46875 114.597656 35.621094 L 114.597656 48.8125 C 114.597656 49 114.558594 49.136719 114.484375 49.230469 C 114.40625 49.308594 114.289062 49.34375 114.140625 49.34375 L 109.625 49.34375 C 109.335938 49.34375 109.191406 49.183594 109.191406 48.859375 L 109.191406 35.734375 C 109.191406 35.503906 109.109375 35.390625 108.941406 35.390625 L 104.746094 35.390625 C 104.378906 35.390625 104.199219 35.242188 104.199219 34.929688 Z M 104.199219 32.074219 "/>
<path style=" stroke:none;fill-rule:nonzero;fill:rgb(0%,0%,0%);fill-opacity:1;" d="M 121.308594 49.34375 C 121.183594 49.34375 121.082031 49.308594 120.988281 49.230469 C 120.910156 49.136719 120.875 49.011719 120.875 48.835938 C 120.875 48.734375 120.898438 48.601562 120.945312 48.445312 L 126.714844 32.074219 C 126.789062 31.878906 126.875 31.742188 126.964844 31.660156 C 127.054688 31.566406 127.203125 31.523438 127.421875 31.523438 L 132.097656 31.523438 C 132.289062 31.523438 132.46875 31.585938 132.621094 31.707031 C 132.769531 31.832031 132.882812 31.980469 132.964844 32.167969 L 138.664062 48.539062 C 138.695312 48.664062 138.710938 48.757812 138.710938 48.8125 C 138.710938 48.953125 138.675781 49.078125 138.621094 49.183594 C 138.558594 49.292969 138.464844 49.34375 138.347656 49.34375 L 133.671875 49.34375 C 133.398438 49.34375 133.21875 49.207031 133.144531 48.929688 L 132.234375 46.167969 C 132.171875 46.0625 132.121094 45.992188 132.074219 45.957031 C 132.039062 45.914062 131.972656 45.890625 131.867188 45.890625 L 126.828125 45.890625 C 126.628906 45.890625 126.507812 45.976562 126.464844 46.144531 L 125.484375 48.976562 C 125.390625 49.222656 125.199219 49.34375 124.914062 49.34375 Z M 130.683594 41.792969 C 130.847656 41.792969 130.933594 41.714844 130.933594 41.5625 C 130.933594 41.53125 130.917969 41.457031 130.886719 41.332031 L 129.472656 37.210938 C 129.441406 37.132812 129.386719 37.09375 129.3125 37.09375 C 129.25 37.09375 129.207031 37.132812 129.175781 37.210938 L 127.71875 41.308594 C 127.683594 41.371094 127.671875 41.445312 127.671875 41.539062 C 127.671875 41.710938 127.769531 41.792969 127.96875 41.792969 Z M 130.683594 41.792969 "/>
<path style=" stroke:none;fill-rule:nonzero;fill:rgb(0%,0%,0%);fill-opacity:1;" d="M 140.519531 32.074219 C 140.519531 31.90625 140.554688 31.773438 140.636719 31.683594 C 140.726562 31.578125 140.839844 31.523438 140.976562 31.523438 L 145.492188 31.523438 C 145.777344 31.523438 145.925781 31.695312 145.925781 32.027344 L 145.925781 45.0625 C 145.925781 45.199219 145.9375 45.292969 145.972656 45.335938 C 146.019531 45.382812 146.097656 45.40625 146.222656 45.40625 L 153.363281 45.40625 C 153.726562 45.40625 153.910156 45.5625 153.910156 45.867188 L 153.910156 48.8125 C 153.910156 48.96875 153.851562 49.101562 153.75 49.207031 C 153.660156 49.296875 153.511719 49.34375 153.316406 49.34375 L 141.160156 49.34375 C 140.929688 49.34375 140.761719 49.296875 140.65625 49.207031 C 140.566406 49.101562 140.519531 48.945312 140.519531 48.746094 Z M 140.519531 32.074219 "/>
<path style=" stroke:none;fill-rule:nonzero;fill:rgb(99.609375%,90.19928%,0%);fill-opacity:1;" d="M 45.285156 9.691406 C 45.285156 9.542969 45.339844 9.410156 45.445312 9.300781 C 45.550781 9.199219 45.699219 9.140625 45.878906 9.140625 L 60.113281 9.140625 C 60.304688 9.140625 60.453125 9.199219 60.546875 9.300781 C 60.648438 9.410156 60.707031 9.542969 60.707031 9.691406 L 60.707031 12.546875 C 60.707031 12.859375 60.527344 13.007812 60.179688 13.007812 L 55.984375 13.007812 C 55.785156 13.007812 55.6875 13.089844 55.6875 13.238281 L 55.6875 26.433594 C 55.6875 26.617188 55.648438 26.753906 55.574219 26.847656 C 55.492188 26.925781 55.378906 26.960938 55.230469 26.960938 L 50.714844 26.960938 C 50.425781 26.960938 50.28125 26.800781 50.28125 26.476562 L 50.28125 13.355469 C 50.28125 13.125 50.195312 13.007812 50.03125 13.007812 L 45.835938 13.007812 C 45.46875 13.007812 45.285156 12.859375 45.285156 12.546875 Z M 45.285156 9.691406 "/>
<path style=" stroke:none;fill-rule:nonzero;fill:rgb(99.609375%,90.19928%,0%);fill-opacity:1;" d="M 70.675781 27.191406 C 68.941406 27.191406 67.425781 26.824219 66.136719 26.085938 C 64.84375 25.339844 63.84375 24.28125 63.148438 22.910156 C 62.449219 21.546875 62.101562 19.9375 62.101562 18.097656 C 62.101562 16.253906 62.449219 14.644531 63.148438 13.261719 C 63.863281 11.878906 64.867188 10.816406 66.160156 10.0625 C 67.449219 9.296875 68.953125 8.910156 70.675781 8.910156 C 72.363281 8.910156 73.847656 9.296875 75.125 10.0625 C 76.410156 10.816406 77.410156 11.878906 78.109375 13.261719 C 78.824219 14.644531 79.183594 16.253906 79.183594 18.097656 C 79.183594 19.925781 78.828125 21.527344 78.132812 22.910156 C 77.433594 24.28125 76.433594 25.339844 75.144531 26.085938 C 73.867188 26.824219 72.375 27.191406 70.675781 27.191406 Z M 70.675781 23.460938 C 71.371094 23.460938 71.929688 23.296875 72.339844 22.957031 C 72.75 22.605469 73.046875 22.046875 73.230469 21.273438 C 73.425781 20.507812 73.527344 19.472656 73.527344 18.167969 C 73.527344 16.1875 73.304688 14.769531 72.863281 13.90625 C 72.421875 13.03125 71.691406 12.59375 70.675781 12.59375 C 69.636719 12.59375 68.898438 13.03125 68.441406 13.90625 C 67.996094 14.769531 67.777344 16.1875 67.777344 18.167969 C 67.777344 19.472656 67.871094 20.507812 68.050781 21.273438 C 68.246094 22.046875 68.554688 22.605469 68.964844 22.957031 C 69.386719 23.296875 69.957031 23.460938 70.675781 23.460938 Z M 70.675781 23.460938 "/>
<path style=" stroke:none;fill-rule:nonzero;fill:rgb(99.609375%,90.19928%,0%);fill-opacity:1;" d="M 96.640625 14.917969 C 96.640625 16.089844 96.367188 17.09375 95.820312 17.9375 C 95.269531 18.78125 94.5 19.433594 93.515625 19.894531 C 92.523438 20.355469 91.382812 20.582031 90.09375 20.582031 L 86.855469 20.582031 C 86.65625 20.582031 86.558594 20.671875 86.558594 20.835938 L 86.558594 26.269531 C 86.558594 26.519531 86.488281 26.695312 86.351562 26.800781 C 86.226562 26.910156 86.039062 26.960938 85.78125 26.960938 L 81.769531 26.960938 C 81.539062 26.960938 81.382812 26.914062 81.289062 26.824219 C 81.199219 26.71875 81.152344 26.566406 81.152344 26.363281 L 81.152344 9.691406 C 81.152344 9.324219 81.300781 9.140625 81.609375 9.140625 L 89.476562 9.140625 C 90.8125 9.140625 92.019531 9.363281 93.105469 9.808594 C 94.199219 10.238281 95.054688 10.890625 95.683594 11.765625 C 96.320312 12.628906 96.640625 13.675781 96.640625 14.917969 Z M 91.121094 14.851562 C 91.121094 14.296875 90.925781 13.855469 90.550781 13.515625 C 90.167969 13.164062 89.707031 12.984375 89.160156 12.984375 L 87.105469 12.984375 C 86.890625 12.984375 86.746094 13.027344 86.671875 13.101562 C 86.59375 13.179688 86.558594 13.308594 86.558594 13.492188 L 86.558594 16.207031 C 86.558594 16.394531 86.585938 16.53125 86.648438 16.625 C 86.707031 16.703125 86.816406 16.738281 86.96875 16.738281 L 89.296875 16.738281 C 89.84375 16.738281 90.28125 16.566406 90.617188 16.207031 C 90.949219 15.839844 91.121094 15.390625 91.121094 14.851562 Z M 91.121094 14.851562 "/>
<path style=" stroke:none;fill-rule:nonzero;fill:rgb(99.609375%,90.19928%,0%);fill-opacity:1;" d="M 99.085938 26.960938 C 98.933594 26.960938 98.800781 26.910156 98.699219 26.800781 C 98.589844 26.695312 98.539062 26.570312 98.539062 26.433594 L 98.539062 9.761719 C 98.539062 9.59375 98.589844 9.449219 98.699219 9.324219 C 98.816406 9.203125 98.960938 9.140625 99.132812 9.140625 L 106.222656 9.140625 C 108.699219 9.140625 110.582031 9.542969 111.859375 10.335938 C 113.136719 11.121094 113.773438 12.292969 113.773438 13.859375 C 113.773438 14.707031 113.535156 15.421875 113.066406 16 C 112.609375 16.589844 111.800781 17.148438 110.648438 17.683594 C 110.613281 17.699219 110.605469 17.730469 110.605469 17.773438 C 110.605469 17.820312 110.613281 17.855469 110.648438 17.867188 C 111.9375 18.34375 112.851562 18.914062 113.386719 19.570312 C 113.933594 20.234375 114.207031 21.078125 114.207031 22.101562 C 114.207031 23.761719 113.578125 24.992188 112.335938 25.789062 C 111.089844 26.570312 109.179688 26.960938 106.613281 26.960938 Z M 106.613281 16.117188 C 107.160156 16.117188 107.597656 15.96875 107.933594 15.65625 C 108.265625 15.351562 108.4375 14.960938 108.4375 14.480469 C 108.4375 13.964844 108.242188 13.550781 107.867188 13.238281 C 107.484375 12.917969 107.011719 12.753906 106.453125 12.753906 L 104.492188 12.753906 C 104.273438 12.753906 104.132812 12.796875 104.058594 12.871094 C 103.976562 12.933594 103.945312 13.046875 103.945312 13.214844 L 103.945312 15.585938 C 103.945312 15.769531 103.972656 15.910156 104.035156 16 C 104.09375 16.082031 104.199219 16.117188 104.355469 16.117188 Z M 106.5 23.371094 C 107.136719 23.371094 107.636719 23.1875 108.003906 22.816406 C 108.378906 22.449219 108.574219 22.011719 108.574219 21.503906 C 108.574219 21.015625 108.390625 20.605469 108.027344 20.285156 C 107.660156 19.960938 107.1875 19.800781 106.613281 19.800781 L 104.492188 19.800781 C 104.273438 19.800781 104.132812 19.847656 104.058594 19.9375 C 103.976562 20.019531 103.945312 20.140625 103.945312 20.308594 L 103.945312 22.839844 C 103.945312 23.023438 103.972656 23.164062 104.035156 23.253906 C 104.09375 23.335938 104.199219 23.371094 104.355469 23.371094 Z M 106.5 23.371094 "/>
<path style=" stroke:none;fill-rule:nonzero;fill:rgb(99.609375%,90.19928%,0%);fill-opacity:1;" d="M 116.113281 9.691406 C 116.113281 9.324219 116.261719 9.140625 116.570312 9.140625 L 129.410156 9.140625 C 129.695312 9.140625 129.84375 9.3125 129.84375 9.648438 L 129.820312 12.433594 C 129.820312 12.863281 129.617188 13.078125 129.207031 13.078125 L 122.066406 13.078125 C 121.703125 13.078125 121.519531 13.234375 121.519531 13.539062 L 121.519531 15.585938 C 121.519531 15.742188 121.554688 15.863281 121.632812 15.957031 C 121.707031 16.046875 121.816406 16.09375 121.953125 16.09375 L 126.242188 16.09375 C 126.5625 16.09375 126.71875 16.25 126.71875 16.554688 L 126.71875 19.546875 C 126.71875 19.8125 126.582031 19.9375 126.308594 19.9375 L 121.90625 19.9375 C 121.78125 19.9375 121.683594 19.980469 121.609375 20.054688 C 121.546875 20.117188 121.519531 20.191406 121.519531 20.285156 L 121.519531 22.679688 C 121.519531 22.816406 121.53125 22.910156 121.566406 22.957031 C 121.609375 23 121.691406 23.023438 121.816406 23.023438 L 129.527344 23.023438 C 129.875 23.023438 130.050781 23.179688 130.050781 23.484375 L 130.050781 26.433594 C 130.050781 26.585938 130.003906 26.71875 129.914062 26.824219 C 129.820312 26.914062 129.675781 26.960938 129.480469 26.960938 L 116.753906 26.960938 C 116.523438 26.960938 116.355469 26.914062 116.25 26.824219 C 116.160156 26.71875 116.113281 26.566406 116.113281 26.363281 Z M 116.113281 9.691406 "/>
<path style=" stroke:none;fill-rule:nonzero;fill:rgb(99.609375%,90.19928%,0%);fill-opacity:1;" d="M 142.589844 13.929688 C 142.207031 13.515625 141.796875 13.191406 141.355469 12.960938 C 140.929688 12.730469 140.308594 12.617188 139.484375 12.617188 C 138.648438 12.617188 138.03125 12.742188 137.640625 12.984375 C 137.238281 13.234375 137.046875 13.527344 137.046875 13.859375 C 137.046875 14.429688 137.554688 14.839844 138.574219 15.082031 L 142.519531 16.117188 C 143.960938 16.484375 145.050781 17.128906 145.78125 18.050781 C 146.511719 18.960938 146.875 20.054688 146.875 21.34375 C 146.875 22.53125 146.5625 23.566406 145.941406 24.453125 C 145.332031 25.328125 144.445312 26.007812 143.296875 26.476562 C 142.136719 26.957031 140.792969 27.191406 139.257812 27.191406 C 137.507812 27.191406 135.917969 26.90625 134.492188 26.316406 C 133.058594 25.734375 132.0625 24.976562 131.503906 24.039062 C 131.421875 23.871094 131.390625 23.75 131.390625 23.667969 C 131.390625 23.519531 131.46875 23.371094 131.640625 23.230469 L 134.101562 21.527344 C 134.269531 21.425781 134.429688 21.367188 134.582031 21.367188 C 134.746094 21.367188 134.890625 21.4375 135.015625 21.574219 C 135.546875 22.28125 136.085938 22.78125 136.636719 23.070312 C 137.195312 23.363281 137.933594 23.507812 138.847656 23.507812 C 139.742188 23.507812 140.449219 23.386719 140.96875 23.140625 C 141.480469 22.878906 141.746094 22.535156 141.746094 22.101562 C 141.746094 21.796875 141.613281 21.539062 141.355469 21.320312 C 141.09375 21.089844 140.722656 20.921875 140.238281 20.8125 L 136.613281 19.917969 C 135.199219 19.566406 134.0625 18.902344 133.214844 17.9375 C 132.375 16.96875 131.960938 15.859375 131.960938 14.597656 C 131.960938 13.554688 132.257812 12.59375 132.847656 11.71875 C 133.453125 10.84375 134.316406 10.164062 135.425781 9.667969 C 136.53125 9.164062 137.820312 8.910156 139.28125 8.910156 C 140.707031 8.910156 142.027344 9.152344 143.25 9.625 C 144.480469 10.085938 145.359375 10.707031 145.894531 11.488281 C 146.015625 11.644531 146.078125 11.78125 146.078125 11.902344 C 146.078125 12.011719 146.015625 12.121094 145.894531 12.226562 L 143.316406 14.113281 C 143.226562 14.175781 143.136719 14.207031 143.042969 14.207031 C 142.9375 14.207031 142.78125 14.113281 142.589844 13.929688 Z M 142.589844 13.929688 "/>
<path style=" stroke:none;fill-rule:nonzero;fill:rgb(99.609375%,90.19928%,0%);fill-opacity:1;" d="M 148.175781 9.691406 C 148.175781 9.542969 148.226562 9.410156 148.335938 9.300781 C 148.4375 9.199219 148.585938 9.140625 148.769531 9.140625 L 163 9.140625 C 163.195312 9.140625 163.34375 9.199219 163.433594 9.300781 C 163.535156 9.410156 163.59375 9.542969 163.59375 9.691406 L 163.59375 12.546875 C 163.59375 12.859375 163.417969 13.007812 163.066406 13.007812 L 158.871094 13.007812 C 158.671875 13.007812 158.574219 13.089844 158.574219 13.238281 L 158.574219 26.433594 C 158.574219 26.617188 158.535156 26.753906 158.460938 26.847656 C 158.382812 26.925781 158.265625 26.960938 158.117188 26.960938 L 153.601562 26.960938 C 153.3125 26.960938 153.167969 26.800781 153.167969 26.476562 L 153.167969 13.355469 C 153.167969 13.125 153.085938 13.007812 152.917969 13.007812 L 148.722656 13.007812 C 148.355469 13.007812 148.175781 12.859375 148.175781 12.546875 Z M 148.175781 9.691406 "/>
<g clip-path="url(#clip3)" clip-rule="nonzero">
<path style="fill:none;stroke-width:6.087;stroke-linecap:butt;stroke-linejoin:miter;stroke:rgb(0%,0%,0%);stroke-opacity:1;stroke-miterlimit:4;" d="M 9.03974 22.258228 C 9.03974 21.228251 9.386343 20.330323 10.07955 19.617262 C 10.799419 18.930611 11.812567 18.560876 13.092333 18.560876 L 110.141272 18.560876 C 111.474362 18.560876 112.48751 18.930611 113.127393 19.617262 C 113.873923 20.330323 114.220527 21.228251 114.220527 22.258228 L 114.220527 41.563686 C 114.220527 43.623639 113.020746 44.680025 110.647846 44.680025 L 81.933091 44.680025 C 80.653325 44.680025 79.98678 45.234628 79.98678 46.317424 L 79.98678 135.45001 C 79.98678 136.612035 79.720162 137.509963 79.160264 138.117385 C 78.627029 138.698397 77.880498 138.988904 76.920674 138.988904 L 46.046313 138.988904 C 44.100002 138.988904 43.140178 137.932517 43.140178 135.740516 L 43.140178 46.977665 C 43.140178 45.419495 42.553618 44.680025 41.327175 44.680025 L 12.772392 44.680025 C 10.292845 44.680025 9.03974 43.623639 9.03974 41.563686 Z M 182.261431 140.626302 C 170.423593 140.626302 160.105478 138.117385 151.307085 133.099551 C 142.482031 128.055306 135.683273 120.89829 130.937473 111.654911 C 126.165011 102.411531 123.792112 91.530753 123.792112 79.118215 C 123.792112 66.679268 126.218335 55.77208 130.990797 46.449472 C 135.816582 37.047635 142.668663 29.784979 151.467056 24.687916 C 160.265449 19.511623 170.556902 16.949887 182.261431 16.949887 C 193.805989 16.949887 203.964133 19.511623 212.735864 24.687916 C 221.480933 29.784979 228.306353 37.047635 233.078815 46.449472 C 237.957923 55.77208 240.357485 66.679268 240.357485 79.118215 C 240.357485 91.451524 237.957923 102.279483 233.1588 111.575682 C 228.413 120.89829 221.640904 128.055306 212.895835 133.099551 C 204.124104 138.117385 193.939298 140.626302 182.261431 140.626302 Z M 182.261431 115.273033 C 187.007231 115.273033 190.793206 114.163828 193.592694 111.813368 C 196.418845 109.489319 198.498465 105.739148 199.778231 100.562855 C 201.057997 95.360153 201.724542 88.361595 201.724542 79.593589 C 201.724542 66.177484 200.20482 56.56437 197.165375 50.727836 C 194.12593 44.891302 189.193498 41.95983 182.261431 41.95983 C 175.222717 41.95983 170.103652 44.891302 167.037545 50.727836 C 163.971439 56.56437 162.451716 66.177484 162.451716 79.593589 C 162.451716 88.361595 163.064938 95.360153 164.398027 100.562855 C 165.677794 105.739148 167.730752 109.489319 170.583564 111.813368 C 173.463038 114.163828 177.35566 115.273033 182.261431 115.273033 Z M 359.482391 57.673575 C 359.482391 65.464424 357.616065 72.251705 353.883414 77.95619 C 350.150762 83.713495 344.92505 88.123908 338.152954 91.187428 C 331.380858 94.277357 323.595613 95.782708 314.850544 95.782708 L 292.641268 95.782708 C 291.33484 95.782708 290.694957 96.416539 290.694957 97.604974 L 290.694957 134.261575 C 290.694957 136.031022 290.241706 137.272276 289.361867 137.958927 C 288.508689 138.671988 287.148938 138.988904 285.309274 138.988904 L 258.034256 138.988904 C 256.407886 138.988904 255.314753 138.671988 254.67487 138.038156 C 254.08831 137.377915 253.821692 136.374348 253.821692 134.974636 L 253.821692 22.258228 C 253.821692 19.828539 254.83484 18.560876 256.914461 18.560876 L 310.63798 18.560876 C 319.756315 18.560876 327.968148 20.039817 335.406789 23.050517 C 342.792107 26.008399 348.657702 30.392401 352.976913 36.228935 C 357.296124 42.065469 359.482391 49.248895 359.482391 57.673575 Z M 321.809273 57.224611 C 321.809273 53.395211 320.529507 50.331691 317.969974 47.981232 C 315.357118 45.710001 312.157703 44.521567 308.345066 44.521567 L 294.427608 44.521567 C 293.014533 44.521567 292.054708 44.812073 291.468149 45.340266 C 290.961574 45.894869 290.694957 46.739978 290.694957 47.928413 L 290.694957 66.283123 C 290.694957 67.577196 290.881589 68.501534 291.308178 69.056137 C 291.761428 69.58433 292.481297 69.822017 293.41446 69.822017 L 309.358214 69.822017 C 313.144189 69.822017 316.13031 68.607173 318.423225 66.203894 C 320.689477 63.747796 321.809273 60.763505 321.809273 57.224611 Z M 376.225999 138.988904 C 375.132865 138.988904 374.226364 138.671988 373.506496 137.958927 C 372.839951 137.272276 372.493348 136.400757 372.493348 135.45001 L 372.493348 22.786421 C 372.493348 21.571577 372.839951 20.594419 373.586481 19.77572 C 374.359673 18.957021 375.319498 18.560876 376.545941 18.560876 L 424.910439 18.560876 C 441.787356 18.560876 454.61168 21.254661 463.276764 26.589411 C 471.995172 31.950571 476.367706 39.847058 476.367706 50.358101 C 476.367706 56.115406 474.79466 60.948373 471.648568 64.909821 C 468.529138 68.844859 463.010146 72.674259 455.118254 76.318792 C 454.90496 76.45084 454.798313 76.635708 454.798313 76.952624 C 454.798313 77.21672 454.90496 77.375178 455.118254 77.480817 C 463.916647 80.729204 470.102184 84.532195 473.781512 88.969017 C 477.434178 93.405839 479.273842 99.163144 479.273842 106.214522 C 479.273842 117.332986 475.034616 125.599208 466.502841 130.960368 C 458.077714 136.347938 445.040095 138.988904 427.523295 138.988904 Z M 427.523295 65.622881 C 431.282609 65.622881 434.322053 64.619315 436.614968 62.559361 C 438.88122 60.472999 440.001016 57.832033 440.001016 54.557236 C 440.001016 51.097571 438.72125 48.298148 436.081732 46.132556 C 433.522199 43.993374 430.26946 42.884168 426.376838 42.884168 L 413.072602 42.884168 C 411.686188 42.884168 410.699702 43.121855 410.113142 43.623639 C 409.606568 44.151832 409.33995 44.970531 409.33995 46.132556 L 409.33995 62.031168 C 409.33995 63.378061 409.526583 64.302399 409.953171 64.857001 C 410.433084 65.385195 411.126291 65.622881 412.059453 65.622881 Z M 426.69678 114.665611 C 431.122638 114.665611 434.641995 113.424357 437.174866 110.91544 C 439.734398 108.432933 441.014164 105.501461 441.014164 102.121025 C 441.014164 98.793408 439.734398 96.020395 437.254851 93.881213 C 434.748642 91.689211 431.522565 90.606415 427.523295 90.606415 L 413.072602 90.606415 C 411.686188 90.606415 410.699702 90.870512 410.113142 91.425115 C 409.606568 91.979717 409.33995 92.824826 409.33995 94.03967 L 409.33995 111.073898 C 409.33995 112.367971 409.526583 113.345128 409.953171 113.873322 C 410.433084 114.375105 411.126291 114.665611 412.059453 114.665611 Z M 492.418108 22.258228 C 492.418108 19.828539 493.484579 18.560876 495.537538 18.560876 L 583.174862 18.560876 C 585.121173 18.560876 586.10766 19.696491 586.10766 21.967721 L 585.947689 40.797806 C 585.947689 43.702868 584.561276 45.181808 581.735125 45.181808 L 533.024023 45.181808 C 530.517814 45.181808 529.291372 46.211785 529.291372 48.218919 L 529.291372 62.031168 C 529.291372 63.140374 529.55799 63.959073 530.091226 64.566495 C 530.651123 65.200327 531.34433 65.464424 532.250831 65.464424 L 561.418836 65.464424 C 563.738413 65.464424 564.858208 66.547219 564.858208 68.686401 L 564.858208 88.810559 C 564.858208 90.685644 563.871722 91.609982 561.898749 91.609982 L 531.904228 91.609982 C 531.157698 91.609982 530.517814 91.821259 530.037902 92.270224 C 529.55799 92.719188 529.291372 93.220971 529.291372 93.881213 L 529.291372 110.096741 C 529.291372 110.968259 529.451343 111.575682 529.717961 111.892597 C 529.957917 112.209513 530.491153 112.367971 531.237683 112.367971 L 584.001378 112.367971 C 586.374278 112.367971 587.547397 113.424357 587.547397 115.484311 L 587.547397 135.45001 C 587.547397 136.532806 587.227455 137.377915 586.56091 138.038156 C 585.947689 138.671988 584.987864 138.988904 583.681436 138.988904 L 496.817304 138.988904 C 495.190934 138.988904 494.071139 138.671988 493.404594 138.038156 C 492.738049 137.377915 492.418108 136.374348 492.418108 134.974636 Z M 673.078439 50.886294 C 670.518907 48.034051 667.719418 45.84205 664.706635 44.363109 C 661.773838 42.857759 657.481289 42.118288 651.828988 42.118288 C 646.230011 42.118288 642.07077 42.936988 639.351267 44.574386 C 636.631764 46.158966 635.298674 48.11328 635.298674 50.358101 C 635.298674 54.26673 638.764708 57.013334 645.696775 58.624323 L 672.625189 65.622881 C 682.463392 68.105389 689.902033 72.462982 694.834465 78.74848 C 699.873545 84.928339 702.353092 92.349453 702.353092 101.038229 C 702.353092 109.066764 700.24681 116.012504 696.007584 121.981086 C 691.768359 127.896848 685.742793 132.492128 677.904225 135.740516 C 670.038995 138.988904 660.867337 140.626302 650.389251 140.626302 C 638.49809 140.626302 627.620077 138.671988 617.835197 134.71054 C 608.050318 130.775501 601.25156 125.599208 597.465585 119.181662 C 596.932349 118.072457 596.639069 117.306577 596.639069 116.751974 C 596.639069 115.669178 597.225629 114.692021 598.452072 113.846912 L 615.169018 102.279483 C 616.342137 101.540013 617.43527 101.196687 618.395095 101.196687 C 619.621538 101.196687 620.581362 101.672061 621.327893 102.622808 C 625.033882 107.376546 628.71321 110.756982 632.525847 112.711297 C 636.311822 114.665611 641.377564 115.642768 647.643086 115.642768 C 653.695313 115.642768 658.494437 114.77125 661.987132 113.107442 C 665.506489 111.417224 667.29283 109.119584 667.29283 106.214522 C 667.29283 104.154568 666.386329 102.411531 664.653312 100.879771 C 662.920295 99.321602 660.387424 98.185986 657.0547 97.420106 L 632.339215 91.425115 C 622.660983 89.048246 614.9024 84.611424 609.170114 78.035419 C 603.411166 71.512235 600.585015 63.959073 600.585015 55.428755 C 600.585015 48.377377 602.611312 41.880601 606.74389 36.017658 C 610.849807 30.101895 616.68874 25.453796 624.234029 22.04695 C 631.832641 18.640105 640.57771 16.949887 650.549222 16.949887 C 660.280777 16.949887 669.345788 18.534466 677.637607 21.730035 C 685.956087 24.925603 692.008315 29.151148 695.687643 34.459488 C 696.434173 35.410236 696.780776 36.360984 696.780776 37.206092 C 696.780776 37.945563 696.434173 38.658624 695.687643 39.318865 L 677.98421 52.153957 C 677.450974 52.576512 676.864414 52.814199 676.19787 52.814199 C 675.451339 52.814199 674.411529 52.153957 673.078439 50.886294 Z M 711.258132 22.258228 C 711.258132 21.228251 711.604735 20.330323 712.324604 19.617262 C 713.01781 18.930611 714.030959 18.560876 715.310725 18.560876 L 812.359663 18.560876 C 813.692753 18.560876 814.705902 18.930611 815.372446 19.617262 C 816.118977 20.330323 816.46558 21.228251 816.46558 22.258228 L 816.46558 41.563686 C 816.46558 43.623639 815.239137 44.680025 812.866238 44.680025 L 784.151483 44.680025 C 782.871717 44.680025 782.205172 45.234628 782.205172 46.317424 L 782.205172 135.45001 C 782.205172 136.612035 781.938554 137.509963 781.405318 138.117385 C 780.84542 138.698397 780.09889 138.988904 779.139065 138.988904 L 748.264705 138.988904 C 746.318394 138.988904 745.358569 137.932517 745.358569 135.740516 L 745.358569 46.977665 C 745.358569 45.419495 744.77201 44.680025 743.572229 44.680025 L 714.990783 44.680025 C 712.511236 44.680025 711.258132 43.623639 711.258132 41.563686 Z M 711.258132 22.258228 " transform="matrix(0.146511,0,0,0.14791,42.917765,5.3406)"/>
</g>
</g>
</svg>
