<?xml version="1.0" encoding="UTF-8"?>
<svg xmlns="http://www.w3.org/2000/svg" xmlns:xlink="http://www.w3.org/1999/xlink" width="45pt" height="44.999999pt" viewBox="0 0 45 44.999999" version="1.2">
<defs>
<clipPath id="clip1">
  <path d="M 10.804688 1 L 34.195312 1 L 34.195312 18 L 10.804688 18 Z M 10.804688 1 "/>
</clipPath>
</defs>
<g id="surface1">
<path style=" stroke:none;fill-rule:nonzero;fill:rgb(99.609375%,90.19928%,0%);fill-opacity:1;" d="M 13 21.0625 L 31.941406 21.0625 L 31.941406 25.738281 L 13 25.738281 Z M 13 21.0625 "/>
<path style=" stroke:none;fill-rule:nonzero;fill:rgb(99.609375%,90.19928%,0%);fill-opacity:1;" d="M 10.496094 27.171875 L 34.46875 27.171875 L 34.46875 31.847656 L 10.496094 31.847656 Z M 10.496094 27.171875 "/>
<path style=" stroke:none;fill-rule:nonzero;fill:rgb(99.609375%,90.19928%,0%);fill-opacity:1;" d="M 7.753906 33.28125 L 37.21875 33.28125 L 37.21875 37.957031 L 7.753906 37.957031 Z M 7.753906 33.28125 "/>
<g clip-path="url(#clip1)" clip-rule="nonzero">
<path style=" stroke:none;fill-rule:nonzero;fill:rgb(99.609375%,90.19928%,0%);fill-opacity:1;" d="M 22.089844 1.214844 C 21.449219 1.382812 20.972656 1.953125 20.847656 2.691406 C 20.777344 3.089844 20.84375 3.464844 21.039062 3.871094 C 21.1875 4.175781 21.546875 4.535156 21.804688 4.644531 C 21.925781 4.695312 21.953125 4.730469 21.929688 4.789062 C 21.910156 4.828125 21.84375 5.019531 21.769531 5.207031 C 21.363281 6.304688 20.683594 7.765625 20.226562 8.535156 C 19.488281 9.765625 18.789062 10.464844 18.09375 10.667969 C 17.738281 10.773438 17.457031 10.734375 17.035156 10.535156 C 16.128906 10.105469 15.328125 9.402344 14.328125 8.15625 C 14.050781 7.808594 13.464844 6.996094 13.417969 6.894531 C 13.410156 6.875 13.503906 6.757812 13.632812 6.628906 C 14.5 5.738281 14.277344 4.175781 13.195312 3.632812 C 12.957031 3.507812 12.882812 3.496094 12.496094 3.496094 C 12.109375 3.496094 12.035156 3.507812 11.796875 3.628906 C 10.933594 4.066406 10.574219 5.203125 11.003906 6.132812 C 11.246094 6.652344 11.75 7.039062 12.289062 7.105469 C 12.496094 7.132812 12.546875 7.152344 12.566406 7.238281 C 12.578125 7.285156 13.082031 9.625 13.683594 12.425781 C 14.285156 15.226562 14.789062 17.566406 14.804688 17.621094 L 14.824219 17.722656 L 30.175781 17.722656 L 30.195312 17.621094 C 30.210938 17.566406 30.714844 15.226562 31.316406 12.425781 C 31.917969 9.625 32.421875 7.285156 32.433594 7.238281 C 32.453125 7.152344 32.503906 7.132812 32.710938 7.105469 C 33.25 7.039062 33.753906 6.652344 33.996094 6.132812 C 34.425781 5.203125 34.066406 4.066406 33.203125 3.628906 C 32.964844 3.507812 32.890625 3.496094 32.503906 3.496094 C 32.117188 3.496094 32.042969 3.507812 31.804688 3.632812 C 31.296875 3.882812 30.941406 4.410156 30.847656 5.03125 C 30.753906 5.613281 30.941406 6.195312 31.367188 6.628906 C 31.488281 6.757812 31.589844 6.867188 31.589844 6.878906 C 31.589844 6.917969 30.894531 7.867188 30.59375 8.246094 C 29.742188 9.316406 28.898438 10.058594 28.101562 10.460938 C 27.550781 10.738281 27.296875 10.78125 26.90625 10.667969 C 25.742188 10.328125 24.539062 8.570312 23.292969 5.378906 C 23.15625 5.03125 23.046875 4.738281 23.046875 4.730469 C 23.046875 4.71875 23.125 4.671875 23.222656 4.628906 C 23.3125 4.585938 23.5 4.441406 23.632812 4.308594 C 24.621094 3.324219 24.191406 1.554688 22.878906 1.210938 C 22.558594 1.128906 22.414062 1.128906 22.089844 1.214844 Z M 22.089844 1.214844 "/>
</g>
<path style=" stroke:none;fill-rule:nonzero;fill:rgb(99.609375%,90.19928%,0%);fill-opacity:1;" d="M 14.917969 19.117188 L 14.917969 20.144531 L 30.082031 20.144531 L 30.082031 18.089844 L 14.917969 18.089844 Z M 14.917969 19.117188 "/>
</g>
</svg>
